<svg width="270" height="95" viewBox="0 0 270 95" fill="none" xmlns="http://www.w3.org/2000/svg">
<g clip-path="url(#clip0)">
<path d="M29.0657 38.7109H0.523316V47.7996L19.1263 47.7998C19.6788 47.7998 20.2088 48.0193 20.5995 48.41C20.9902 48.8007 21.2097 49.3307 21.2097 49.8832V65.9774H17.234C16.6814 65.9774 16.1515 65.7579 15.7608 65.3672C15.3701 64.9765 15.1505 64.4466 15.1505 63.894V52.3442H7.2945C6.33689 52.3442 5.38866 52.5328 4.50395 52.8993C3.61923 53.2658 2.81536 53.8029 2.13823 54.48C1.4611 55.1572 0.923971 55.961 0.557512 56.8457C0.191052 57.7305 0.00243903 58.6787 0.00244141 59.6363V67.7742C0.00244045 68.7318 0.191055 69.6801 0.557515 70.5648C0.923975 71.4495 1.4611 72.2534 2.13823 72.9305C2.81537 73.6076 3.61924 74.1448 4.50395 74.5112C5.38866 74.8777 6.33689 75.0663 7.2945 75.0663H36.3578V46.003C36.3578 45.0454 36.1692 44.0972 35.8027 43.2125C35.4363 42.3277 34.8991 41.5239 34.222 40.8467C33.5449 40.1696 32.741 39.6325 31.8563 39.266C30.9716 38.8996 30.0233 38.7109 29.0657 38.7109V38.7109Z" fill="#0ABF53"/>
<path d="M63.6236 65.9771H59.6479C59.0953 65.9771 58.5654 65.7576 58.1747 65.3669C57.7839 64.9761 57.5644 64.4462 57.5644 63.8937V38.7105H49.7091C48.7514 38.7105 47.8032 38.8991 46.9185 39.2655C46.0338 39.632 45.2299 40.1691 44.5528 40.8462C43.8757 41.5234 43.3385 42.3272 42.9721 43.212C42.6056 44.0967 42.417 45.0449 42.417 46.0025V67.7739C42.417 68.7315 42.6056 69.6798 42.9721 70.5645C43.3385 71.4492 43.8757 72.2531 44.5528 72.9302C45.2299 73.6073 46.0338 74.1444 46.9185 74.5109C47.8032 74.8774 48.7514 75.066 49.7091 75.066H78.7723V23.5625H63.6241L63.6236 65.9771Z" fill="#0ABF53"/>
<path d="M106.038 65.9776H102.063C101.51 65.9775 100.98 65.758 100.589 65.3673C100.199 64.9766 99.9792 64.4467 99.9792 63.8941V38.7109H84.8315V67.7744C84.8315 68.732 85.0202 69.6802 85.3866 70.5649C85.7531 71.4497 86.2902 72.2535 86.9673 72.9307C87.6445 73.6078 88.4483 74.1449 89.333 74.5114C90.2178 74.8778 91.166 75.0664 92.1236 75.0664H106.039V79.6108H85.3524V90.2124H113.895C115.829 90.2124 117.684 89.4442 119.051 88.0766C120.419 86.7091 121.187 84.8543 121.187 82.9204V38.7109H106.038V65.9776Z" fill="#0ABF53"/>
<path d="M156.309 38.7109H127.246V67.7742C127.246 68.7318 127.435 69.6801 127.801 70.5648C128.168 71.4495 128.705 72.2534 129.382 72.9305C130.059 73.6076 130.863 74.1448 131.748 74.5112C132.632 74.8777 133.581 75.0663 134.538 75.0663H163.08V65.9774H144.477C143.925 65.9774 143.395 65.7579 143.004 65.3672C142.613 64.9765 142.394 64.4465 142.394 63.894V47.7999H146.37C146.643 47.7999 146.914 47.8537 147.167 47.9584C147.42 48.0631 147.649 48.2166 147.843 48.4101C148.036 48.6035 148.19 48.8332 148.294 49.086C148.399 49.3388 148.453 49.6097 148.453 49.8833V61.433H156.309C157.267 61.433 158.215 61.2444 159.1 60.8779C159.984 60.5115 160.788 59.9743 161.465 59.2972C162.143 58.6201 162.68 57.8162 163.046 56.9315C163.413 56.0468 163.601 55.0985 163.601 54.1409V46.003C163.601 45.0454 163.413 44.0972 163.046 43.2124C162.68 42.3277 162.143 41.5239 161.465 40.8467C160.788 40.1696 159.984 39.6325 159.1 39.266C158.215 38.8995 157.267 38.7109 156.309 38.7109V38.7109Z" fill="#0ABF53"/>
<path d="M198.724 38.7109H169.661V75.0663H184.809V47.7996H188.785C189.337 47.8013 189.866 48.0213 190.256 48.4117C190.646 48.802 190.866 49.331 190.868 49.8831V75.0663H206.016V46.003C206.016 45.0454 205.828 44.0972 205.461 43.2124C205.095 42.3277 204.558 41.5239 203.88 40.8467C203.203 40.1696 202.399 39.6325 201.515 39.266C200.63 38.8995 199.682 38.7109 198.724 38.7109V38.7109Z" fill="#0ABF53"/>
</g>
<path d="M206.2 91.8C205.22 91.8 204.31 91.73 203.47 91.59C202.63 91.45 201.883 91.2633 201.23 91.03V84.94C201.93 85.1733 202.583 85.36 203.19 85.5C203.797 85.64 204.45 85.71 205.15 85.71C206.783 85.71 208.067 85.08 209 83.82C209.98 82.6067 210.727 80.7867 211.24 78.36L218.73 42.87H212.5L213.2 39.58L219.92 37.13L220.69 33.91C221.39 30.7367 222.3 28.2633 223.42 26.49C224.587 24.67 226.01 23.3867 227.69 22.64C229.417 21.8467 231.447 21.45 233.78 21.45C235.087 21.45 236.37 21.59 237.63 21.87C238.89 22.15 239.963 22.4767 240.85 22.85L238.89 28.45C238.237 28.17 237.513 27.9367 236.72 27.75C235.973 27.5633 235.133 27.47 234.2 27.47C232.567 27.47 231.26 27.96 230.28 28.94C229.3 29.92 228.53 31.6467 227.97 34.12L227.27 37.27H235.18L233.99 42.87H226.15L218.45 79.34C217.61 83.12 216.257 86.13 214.39 88.37C212.57 90.6567 209.84 91.8 206.2 91.8ZM229.509 75L245.819 55.61L237.839 37.27H245.469L250.719 50.43L260.939 37.27H269.549L253.799 55.96L262.339 75H254.639L248.899 61.28L238.119 75H229.509Z" fill="#0ABF53"/>
<defs>
<clipPath id="clip0">
<rect width="206.285" height="80" fill="white" transform="translate(0 11)"/>
</clipPath>
</defs>
</svg>
